# xmcd
# 
# Track frame offsets:
#     150
#     13022
#     27362
#     47677
#     59932
#     72295
#     82077
#     94390
#     111137
#     123767
#     133415
#     146482
# 
# Disc length: 2158
# 
# Revision: 2
# Processed by: cddbd v1.5.2PL0 Copyright (c) Steve Scherf et al.
# Submitted via: fre:ac v1.0.17
# 
DISCID=b4086c0c
DTITLE=VERSCHIEDENE - SUPERSTARS DER VOLKSMUSIK CD 3
DYEAR=1992
DGENRE=
TTITLE0=Die Kaiserlich Bömischen - Tief drin im Böhmerwald
TTITLE1=Uschi Bauer - A richtiger Mann
TTITLE2=Silker and Dieter - Unser Land
TTITLE3=Orginal Alpenland Quintett - wenn Musikanten feiern
TTITLE4=Oberpfälzer Heimatsänger - Patrona Bavariae
TTITLE5=Bavaria Chor - Gott mit Dir du Land der Bayern
TTITLE6=Rudi and Vreni - Maroni
TTITLE7=Stefan Mross - Wenn die Berge erglüh´n
TTITLE8=Max Grieser - Ohne Bass machts kein Spass
TTITLE9=Hot Dogs - Ja wo is a denn
TTITLE10=Mürztaler Musikanten - Zack Prack
TTITLE11=Günter Wewel - Im tiefen Keller
EXTD=
EXTT0=
EXTT1=
EXTT2=
EXTT3=
EXTT4=
EXTT5=
EXTT6=
EXTT7=
EXTT8=
EXTT9=
EXTT10=
EXTT11=
PLAYORDER=
